<svg viewBox="0 0 10 6" fill="none" xmlns="http://www.w3.org/2000/svg">
<path d="M0.246139 1.47381C-0.0820465 1.13666 -0.0820465 0.590022 0.246139 0.252867C0.574324 -0.0842891 1.10642 -0.0842891 1.4346 0.252867L5.59423 4.52619C5.92241 4.86334 5.92241 5.40998 5.59423 5.74713C5.26604 6.08429 4.73395 6.08429 4.40576 5.74713L0.246139 1.47381Z" fill="#0D4CD3"/>
<path d="M8.5654 0.252997C8.89358 -0.0841583 9.42568 -0.0841584 9.75386 0.252997C10.082 0.590153 10.082 1.13679 9.75386 1.47395L5.59423 5.74713C5.26604 6.08429 4.73395 6.08429 4.40576 5.74713C4.07758 5.40998 4.07759 4.86347 4.40577 4.52632L8.5654 0.252997Z" fill="#0D4CD3"/>
</svg>
