<svg width="20" height="20" viewBox="0 0 20 20" fill="none" xmlns="http://www.w3.org/2000/svg">
  <path d="M19.153 7.28396C18.8266 6.95939 18.299 6.96083 17.9744 7.28713L7.95669 17.3591C6.65701 18.6587 4.54614 18.6587 3.24404 17.3573C1.94291 16.0555 1.94291 13.9446 3.24419 12.6434L13.5585 2.2749C14.3699 1.46351 15.6891 1.46351 16.5029 2.27666C17.3164 3.09019 17.3164 4.40925 16.5027 5.22302L7.95825 13.7674C7.9577 13.7679 7.95723 13.7685 7.95669 13.7691C7.63117 14.0928 7.1051 14.0924 6.78025 13.7675C6.45485 13.4421 6.45485 12.9147 6.78025 12.5893L10.9046 8.46415C11.23 8.13867 11.2299 7.611 10.9045 7.28561C10.579 6.96021 10.0513 6.96025 9.72591 7.28572L5.60163 11.4108C4.6254 12.3871 4.6254 13.9698 5.60171 14.946C6.57798 15.9223 8.16068 15.9223 9.13699 14.946C9.13812 14.9449 9.13902 14.9437 9.14011 14.9425L17.6812 6.40148C19.1458 4.93684 19.1458 2.56248 17.6812 1.09784C16.2163 -0.365946 13.8421 -0.365946 12.3784 1.09784L2.06409 11.4664C0.113495 13.417 0.113494 16.5829 2.06549 18.5358C4.01878 20.4881 7.18471 20.4881 9.13683 18.536L19.1562 8.46251C19.4807 8.13617 19.4793 7.60854 19.153 7.28396Z" fill="#0D4CD3"/>
</svg>
